<svg width="408.39px" height="45.62px" viewBox="0 0 408.39 45.62" version="1.1" xmlns="http://www.w3.org/2000/svg" xmlns:xlink="http://www.w3.org/1999/xlink"><path d="M31.01,44.59 L27.4,34.77 L13.56,34.77 L9.95,44.59 L0,44.59 L17.1,0.75 L24.39,0.75 L41.5,44.59 L31,44.59 L31.01,44.59 Z M21.81,18.48 C21.4,17.32 20.86,15.89 20.52,14.46 L20.38,14.46 C20.04,15.89 19.56,17.39 19.15,18.48 L16.22,26.52 L24.74,26.52 L21.81,18.48 L21.81,18.48 Z M86.78,44.59 L85.35,28.57 C85.15,26.18 84.94,23.32 84.94,20.53 L84.8,20.53 C83.78,23.26 82.35,26.26 81.12,28.71 L72.94,44.73 L68.71,44.73 L60.39,28.71 C59.1,26.26 57.8,23.39 56.71,20.6 L56.57,20.6 C56.57,23.39 56.43,26.26 56.23,28.58 L54.87,44.6 L45.05,44.6 L48.8,1.1 L57.53,1.1 L67.01,19.37 C68.37,22.03 70.21,25.78 71.37,28.64 L71.44,28.64 C72.53,25.78 74.23,22.23 75.67,19.37 L85.08,1.1 L93.26,1.1 L97.08,44.6 L86.79,44.6 L86.78,44.59 Z M119.58,44.59 L103.49,44.59 L103.49,1.09 L117.74,1.09 C124.49,1.09 130.49,5.52 130.49,12.61 C130.49,15.2 129.19,18.47 126.88,19.77 C130.7,21 134.45,25.5 134.45,31.02 C134.45,39.47 127.77,44.59 119.59,44.59 L119.58,44.59 Z M116.1,8.93 L112.96,8.93 L112.96,17.86 L116.1,17.86 C118.62,17.86 120.94,16.57 120.94,13.43 C120.94,10.29 118.62,8.93 116.1,8.93 Z M117.81,25.5 L112.97,25.5 L112.97,36.89 L117.81,36.89 C121.01,36.89 124.29,35.19 124.29,31.23 C124.29,27.27 121.09,25.5 117.81,25.5 Z M141.53,44.59 L141.53,1.09 L152.1,1.09 L152.1,44.59 L141.53,44.59 Z M160.49,44.59 L160.49,1.09 L171.06,1.09 L171.06,35.93 L187.42,35.93 L187.42,44.59 L160.49,44.59 Z M192.81,44.59 L192.81,1.09 L203.38,1.09 L203.38,44.59 L192.81,44.59 Z M234.53,45.61 C222.53,45.61 210.4,37.77 210.4,22.84 C210.4,7.91 222.81,0 234.33,0 C240.33,0 245.51,1.64 248.44,3.61 L246.46,12.34 C243.8,10.57 239.71,9.27 235.42,9.27 C227.51,9.27 220.9,14.52 220.9,23.18 C220.9,31.29 227.17,36.68 235.01,36.68 C237.53,36.68 239.44,36.27 240.94,35.39 L240.94,28.5 L233.37,28.5 L233.37,20.39 L250.62,20.39 L250.62,41.12 C246.94,44.05 241.62,45.62 234.53,45.62 L234.53,45.61 Z M285.19,44.59 L285.19,27.34 L268.42,27.34 L268.42,44.59 L257.85,44.59 L257.85,1.09 L268.42,1.09 L268.42,18.2 L285.19,18.2 L285.19,1.09 L295.76,1.09 L295.76,44.59 L285.19,44.59 Z M323.51,9.75 L323.51,44.59 L312.94,44.59 L312.94,9.75 L300.46,9.75 L300.46,1.09 L335.98,1.09 L335.98,9.75 L323.5,9.75 L323.51,9.75 Z M375.94,18.68 L366.12,18.68 L366.12,35.11 C366.12,38.65 367.96,39.88 371.23,39.88 C372.32,39.88 373.28,39.74 374.03,39.47 L373.48,44.38 C372.66,44.79 371.3,44.93 370.07,44.93 C364.48,44.93 359.98,41.73 359.98,35.73 L359.98,18.69 L353.91,18.69 L353.91,13.71 L359.98,13.71 L359.98,7.44 L366.12,4.24 L366.12,13.72 L377.03,13.72 L375.94,18.7 L375.94,18.68 Z M395.44,45.13 L392.92,45.13 L380.03,13.7 L386.3,13.7 L391.96,27.47 C392.78,29.45 393.66,32.17 394.41,34.49 L394.55,34.49 C395.3,32.17 396.19,29.45 397.01,27.47 L402.6,13.7 L408.39,13.7 L395.44,45.13 Z" fill="#FFFFFF" fill-rule="nonzero"></path></svg>