<?xml version="1.0" encoding="UTF-8"?>
<svg id="Layer_2" data-name="Layer 2" xmlns="http://www.w3.org/2000/svg" viewBox="0 0 17.83 17.83">
  <defs>
    <style>
      .cls-1 {
        fill: #fff;
        stroke-width: 0px;
      }
    </style>
  </defs>
  <g id="Capa_1" data-name="Capa 1">
    <path class="cls-1" d="M9.27,0C4.35-.19.2,3.64,0,8.56c-.2,4.92,3.64,9.07,8.56,9.26,4.92.2,9.07-3.64,9.26-8.56C18.02,4.35,14.19.2,9.27,0M13.03,13.07c-.11.2-.33.29-.54.26-.06,0-.13-.03-.19-.06-1.18-.67-2.46-1.11-3.82-1.3-1.35-.19-2.71-.12-4.03.2-.29.07-.57-.11-.64-.39-.07-.29.11-.57.39-.64,1.45-.35,2.94-.42,4.43-.22,1.49.21,2.9.69,4.2,1.43.26.15.34.47.2.73M14.21,10.73c-.18.34-.6.46-.94.28-1.38-.75-2.87-1.24-4.44-1.46-1.57-.22-3.14-.16-4.67.18-.08.02-.17.02-.24,0-.28-.04-.52-.25-.58-.54-.08-.37.15-.74.53-.82,1.69-.37,3.43-.44,5.16-.2,1.73.24,3.38.78,4.9,1.61.34.18.46.6.28.94M15.5,8.09c-.17.33-.53.5-.87.45-.09-.01-.19-.04-.27-.09-1.61-.83-3.34-1.39-5.14-1.64s-3.62-.2-5.39.16c-.46.09-.91-.2-1-.67-.09-.46.2-.91.67-1,1.96-.4,3.97-.46,5.97-.18,2,.28,3.91.89,5.69,1.82.42.22.58.73.36,1.15"/>
  </g>
</svg>