<svg width="212" height="212" viewBox="0 0 212 212" fill="none" xmlns="http://www.w3.org/2000/svg">
<path d="M135.334 164.579C142.735 160.885 156.888 162.626 158.689 177.518C148.409 196.104 128.601 208.704 105.852 208.704C93.3852 208.704 81.8048 204.908 72.1855 198.435C84.9247 197.847 101.861 194.609 112.364 188.338C122.547 182.269 133.36 174.697 135.334 164.579ZM107.616 149.315C119.139 141.156 128.016 148.558 130.699 154.955C135.984 167.592 124.852 176.718 110.524 185.273C99.4337 191.877 80.0928 195.047 67.5108 194.95C60.8567 189.463 55.3981 182.575 51.5887 174.749C52.0737 174.773 52.5561 174.789 53.049 174.789C62.9804 174.789 71.4042 170.229 76.105 162.191C79.0624 164.131 82.6123 165.471 86.8544 166.008C95.2284 167.081 106.877 158.759 107.616 149.315ZM100.939 3.56483C102.91 3.10077 104.866 3.27643 106.79 3.79293C111.279 4.99895 115.788 6.27838 119.553 9.10467C123.15 11.8051 125.715 15.3157 126.105 20.0008C126.383 23.3043 125.906 26.5553 125.117 29.7591C125.167 30.585 125.195 31.424 125.203 32.2734C125.89 33.8281 125.754 35.5035 125.347 37.1001C124.826 39.1504 124.126 41.1587 123.51 43.1879C123.434 43.4396 123.35 43.707 123.35 43.9666C123.329 47.5296 122.238 50.702 119.97 53.4732C119.286 54.3122 119.69 57.0048 120.209 57.904C120.516 58.4336 120.799 58.9816 121.071 59.5322C135.727 61.6401 141.875 63.6824 144.725 71.1598C145.685 70.604 146.778 70.1216 148.018 69.689C149.992 68.3466 152.593 67.6859 154.746 67.1983C157.137 66.6582 159.716 66.5481 162.055 65.8376C162.734 65.6304 163.329 65.2817 163.841 64.836C164.069 64.4139 164.223 61.3333 164.299 60.8457C163.694 61.5064 162.947 62.0228 162.055 62.2929C159.814 62.9746 157.341 63.0847 155.047 63.5881C152.362 49.1656 155.016 18.1839 174.315 18.1839C193.679 18.1839 195.716 48.7251 193.357 63.5409C192.161 63.2866 190.96 63.0689 189.754 62.8671C188.637 62.6783 187.439 62.597 186.367 62.2195C185.457 61.8996 184.71 61.3228 184.12 60.6045C184.162 61.0423 184.272 64.1019 184.456 64.5319C184.82 64.9042 185.234 65.2267 185.704 65.4757C187.219 66.2754 189.17 66.3042 190.834 66.5979C193.973 67.1537 197.321 67.7803 200.103 69.4215C200.289 69.5317 200.47 69.6496 200.65 69.7729C210.642 73.3647 210.731 80.4802 211.693 102.55C212.359 117.864 212.365 122.471 207.213 137.855C203.149 149.976 201.628 157.22 196.207 161.029L194.615 183.784C194.413 186.671 192.014 188.907 189.122 188.907H165.18C173.054 177.405 177.66 163.494 177.66 148.503C177.66 108.94 145.588 76.8648 106.022 76.8648C66.4569 76.8648 34.3845 108.937 34.3845 148.503C34.3845 163.491 38.9936 177.405 46.8642 188.907H22.888C19.9935 188.907 17.5972 186.673 17.3927 183.787L15.7934 161.029C10.3715 157.22 8.84829 149.976 4.78976 137.855C-0.364676 122.471 -0.359432 117.864 0.306502 102.55C1.57545 73.4565 1.31851 70.347 24.2487 67.0331C25.3734 66.8732 26.3356 66.2806 26.9937 65.4417C26.9937 65.4417 27.5077 64.1176 27.9843 62.6252L28.0424 62.4417C28.0521 62.411 28.0617 62.3802 28.0713 62.3494L28.1284 62.1643C28.4404 61.1441 28.71 60.101 28.7686 59.388L28.8552 58.3471V57.6969C27.8877 56.5381 26.763 55.0227 25.7169 53.2504C23.9498 50.2563 23.4254 48.4813 23.2707 47.7446L23.1895 47.4719C23.1633 47.4641 23.1397 47.4562 23.1134 47.4457C22.576 47.2438 22.0936 46.9423 21.661 46.57H21.5902V46.5071C19.3905 44.5408 18.5699 40.6658 18.5987 38.2773C18.6171 36.6859 18.9763 35.7604 19.6658 35.5192C19.907 35.4353 20.1613 35.396 20.413 35.396C20.2373 34.4364 20.0984 33.4585 20.0459 32.5487C20.0407 32.4412 20.0459 32.3285 20.0407 32.221C19.1231 31.9404 18.4545 31.1303 18.4545 30.1655C18.4545 29.1063 19.2568 28.2254 20.316 28.0366V27.9475C19.1178 27.5175 18.2605 26.4242 18.2605 25.1343C18.2605 23.7133 19.2961 22.5335 20.6857 22.211C20.6962 22.1612 20.7119 22.1166 20.7224 22.0694C20.2767 21.5477 19.9988 20.8922 19.9988 20.1686C19.9988 18.5955 21.2625 17.3187 22.8775 17.1667C22.8932 17.1457 22.9089 17.1221 22.9247 17.0985C22.6494 16.6659 22.4816 16.1651 22.4816 15.6224C22.4816 14.0415 23.8318 12.7594 25.4966 12.7594C25.9607 12.7594 26.3985 12.8696 26.7918 13.0478C26.7656 12.9036 26.7446 12.7594 26.7446 12.61C26.7446 11.1103 28.0214 9.89645 29.5997 9.89645C30.7219 9.89645 31.6841 10.5178 32.1507 11.4145C32.1324 11.2808 32.1088 11.1497 32.1088 11.0107C32.1088 9.42977 33.459 8.14772 35.1239 8.14772C36.5894 8.14772 37.8086 9.144 38.0786 10.4628C38.346 9.144 39.5678 8.14772 41.0334 8.14772C42.6982 8.14772 44.0484 9.42977 44.0484 11.0107C44.0484 11.1497 44.0274 11.2808 44.0065 11.4145C44.4732 10.5178 45.4354 9.89645 46.5575 9.89645C48.1332 9.89645 49.4126 11.1103 49.4126 12.61C49.4126 12.7594 49.389 12.9036 49.3654 13.0478C49.7587 12.8696 50.1939 12.7594 50.6606 12.7594C52.0318 12.7594 53.1854 13.6273 53.5524 14.8175H54.1108V17.3554C55.309 17.788 56.1611 18.8813 56.1611 20.1712C56.1611 20.9447 55.8465 21.6447 55.3431 22.1795C56.7982 22.4548 57.8967 23.674 57.8967 25.1369C57.8967 26.4819 56.9634 27.6066 55.6839 27.9973V28.0261C56.8165 28.1546 57.7001 29.0591 57.7001 30.1707C57.7001 31.1985 56.9502 32.0506 55.9435 32.2787C55.912 33.2618 55.7731 34.3394 55.5895 35.4012H55.6026C55.8527 35.4012 56.101 35.4438 56.3367 35.5271C57.0237 35.7656 57.3828 36.6937 57.4012 38.2826C57.4353 41.1613 56.2397 46.1925 52.8865 47.4509C52.8707 47.4562 52.8445 47.4641 52.8445 47.4641L52.4277 48.2952C52.4277 48.2952 52.2048 49.003 50.283 53.0118C49.3785 54.9021 48.1174 56.5984 47.1316 57.7651C47.135 57.799 47.1362 58.0009 47.1367 58.1391L47.1369 58.2334L47.1369 58.2536L47.1369 58.2711L47.2313 59.4116C47.2895 60.1176 47.5081 61.1479 47.769 62.1765L47.8235 62.3892L47.879 62.6012C48.2892 64.1519 48.7594 65.5952 48.8778 65.793C49.583 66.4851 50.5347 66.9308 51.531 67.0724C58.9428 68.1473 63.9085 69.2092 67.2801 71.1624C69.9333 64.1885 75.4653 61.9442 88.0814 59.9621C88.3278 59.3984 88.6162 58.8636 88.9806 58.3969C89.9061 57.2119 90.108 56.1186 89.9271 54.8234C89.8406 54.2125 89.6072 53.5571 89.2481 53.0616C87.3578 50.4477 86.3667 47.548 86.2278 44.3363C86.2094 43.9194 86.1543 43.4894 86.0364 43.0883C85.3914 40.9122 84.5734 38.7702 84.1198 36.5548C83.8603 35.278 84.1828 33.8858 84.2247 32.5461C84.2483 31.7989 84.3899 31.0071 84.209 30.3045C82.8116 24.8747 83.467 19.6495 85.6405 14.5554C86.6236 12.2508 88.4274 11.0946 90.8945 11.0186C91.917 10.9871 92.4178 10.6148 92.8268 9.62378C94.3107 6.03193 97.3546 4.40905 100.939 3.56483ZM100.771 119.582C107.781 108.465 123.725 112.896 138.291 121.034C150.105 127.638 162.488 141.437 165.93 153.919C165.357 160.264 163.775 166.476 161.242 172.321C157.142 159.546 143.836 157.681 135.646 160.568C135.549 158.345 135.032 156.006 134.01 153.552C130.801 145.896 119.726 136.579 105.849 146.164C95.64 138.487 96.2666 126.718 100.771 119.582ZM67.8123 101.546C66.6876 105.985 65.6048 109.863 64.737 113.811C61.6354 128.029 61.6721 149.436 73.2342 159.973C69.2753 167.07 61.9762 171.194 53.0464 171.194C51.9793 171.194 50.9385 171.123 49.9107 170.987C47.0871 164.003 45.5271 156.368 45.5271 148.371C45.5271 129.476 54.2157 112.605 67.8123 101.546ZM100.587 88.2827C93.6186 95.8754 95.0632 107.002 102.242 112.731C100.556 113.971 99.0352 115.594 97.7348 117.665C92.4204 126.084 91.6627 140.262 104.011 149.271C103.262 156.336 93.8388 163.284 87.3132 162.445C73.3286 160.652 66.7243 147.674 66.5014 131.72C66.3336 119.907 69.6869 109.548 72.327 98.2245C80.5358 92.7109 90.184 89.1741 100.587 88.2827ZM106.376 88.0493C138.231 88.3115 164.197 113.276 166.069 144.722C160.38 133.836 149.984 123.459 140.043 117.901C129.506 112.02 115.676 106.635 105.7 110.785C98.1569 106.098 96.8591 94.2944 106.376 88.0493ZM25.9607 48.6203H25.7955L25.9607 48.7251V48.6203ZM20.5703 42.5141H20.4812C20.51 42.598 20.5388 42.6819 20.5703 42.7658V42.5141ZM20.0564 36.6413C20.0328 36.6623 19.9988 36.7095 19.9725 36.7776L20.0879 36.7803L20.0564 36.6413Z" fill="#181733"/>
</svg>
