<svg width="34" height="22" viewBox="0 0 34 22" fill="none" xmlns="http://www.w3.org/2000/svg">
<g id="Vector">
<path d="M22.5193 20.0087C22.4941 20.0838 22.4843 20.1655 22.4908 20.2477C22.4973 20.3299 22.5199 20.4103 22.5568 20.4828L23.0059 21.4182C23.1239 21.6662 23.3194 21.8553 23.5494 21.9444C23.7795 22.0334 24.0255 22.015 24.2338 21.8933L30.8352 17.9392L30.2709 16.7638C30.1461 16.5039 30.2187 16.1902 30.4333 16.0616C30.4848 16.0312 30.5416 16.0133 30.6003 16.0087C30.659 16.0042 30.7186 16.0132 30.7756 16.0352C30.8326 16.0572 30.886 16.0918 30.9326 16.137C30.9793 16.1822 31.0183 16.2371 31.0474 16.2987L31.6117 17.4741L33.5533 16.3111C33.7593 16.1847 33.9092 15.9659 33.9701 15.7026C34.031 15.4393 33.9981 15.1528 33.8785 14.9058L33.4294 13.9703C33.3958 13.8959 33.3483 13.8304 33.2906 13.7789C33.2329 13.7274 33.1666 13.6912 33.0966 13.6731C32.534 13.5602 32.0319 13.1434 31.7472 12.5506C31.4626 11.9577 31.4297 11.2599 31.6568 10.674C31.682 10.5989 31.6917 10.5171 31.6852 10.435C31.6787 10.3528 31.6562 10.2724 31.6193 10.1999L31.1702 9.26445C31.0521 9.01648 30.8567 8.82732 30.6266 8.73831C30.3966 8.64929 30.1505 8.66764 29.9423 8.78936L28.0007 9.95234L28.565 11.1278C28.6897 11.3876 28.6165 11.7018 28.4019 11.8303C28.1873 11.9588 27.9132 11.8528 27.7884 11.5929L27.2241 10.4175L20.6227 14.3715C20.4167 14.498 20.2669 14.7167 20.206 14.98C20.1451 15.2434 20.178 15.5298 20.2976 15.7769L20.7467 16.7123C20.7803 16.7868 20.8278 16.8523 20.8855 16.9038C20.9432 16.9553 21.0095 16.9915 21.0795 17.0096C21.3585 17.0663 21.6259 17.1974 21.8603 17.3923C22.0946 17.5872 22.2893 17.8406 22.4288 18.1321C22.7135 18.7249 22.7464 19.4228 22.5193 20.0087ZM28.6167 13.3181C28.4919 13.0583 28.5648 12.7435 28.7788 12.6153C28.8304 12.5849 28.8871 12.5669 28.9459 12.5624C29.0047 12.5579 29.0644 12.5669 29.1214 12.589C29.1785 12.6111 29.2319 12.6458 29.2785 12.6911C29.3251 12.7364 29.3641 12.7914 29.3932 12.853L30.2192 14.5734C30.3439 14.8333 30.2711 15.1481 30.0565 15.2766C29.8424 15.4048 29.5674 15.2984 29.4426 15.0386L28.6167 13.3181Z" fill="#181733"/>
<path fill-rule="evenodd" clip-rule="evenodd" d="M0.610648 18.1286C1.01863 18.5017 1.52662 18.6882 2.13462 18.6882H20.5439C19.9304 17.6427 19.0778 16.1871 19.052 16.141L18.529 15.2491C18.3899 15.0136 18.3312 14.7446 18.3658 14.501C18.4004 14.2573 18.5254 14.0589 18.7136 13.949L19.0877 13.7363H16.0129C15.7538 13.7363 15.5366 13.657 15.3613 13.4958C15.1851 13.3355 15.0969 13.1369 15.0969 12.9V8.06534C15.0969 7.82845 15.1851 7.62982 15.3613 7.46948C15.5366 7.30832 15.7538 7.22775 16.0129 7.22775H19.3173C19.5754 7.22855 19.7926 7.30913 19.9689 7.46948C20.1451 7.62982 20.2332 7.82845 20.2332 8.06534V12.9C20.233 12.9694 20.2252 13.0356 20.2099 13.0985L23.8931 11.0051V4.36928C23.8931 3.81411 23.6891 3.34998 23.2812 2.97691C22.8732 2.60384 22.3652 2.41731 21.7572 2.41731H17.8937V0H16.572V2.41731H7.31981V0H5.99807V2.41731H2.13462C1.52573 2.41811 1.01774 2.60465 0.610648 2.97691C0.203551 3.34918 2.84858e-06 3.8137 2.84858e-06 4.37049V16.735C-0.000878313 17.291 0.20267 17.7555 0.610648 18.1286ZM12.5301 17.4795H11.3604L11.3617 15.9445H12.5301V17.4795ZM8.79488 13.7375H3.65991L3.65859 10.948C3.65859 10.7143 3.76432 10.5008 3.9758 10.3074C4.18728 10.1148 4.42079 10.0185 4.67633 10.0185H7.62513V8.2974H3.65991V7.22775H7.87891C8.13797 7.22775 8.35518 7.30832 8.53053 7.46948C8.70676 7.62982 8.79488 7.82845 8.79488 8.06534V10.0173C8.79488 10.251 8.68914 10.4645 8.47766 10.6579C8.26618 10.8505 8.03267 10.9468 7.77713 10.9468H4.82965V12.6679H8.79488V13.7375ZM12.5301 13.0631H11.3617V11.9935H12.5301V13.0631ZM12.5301 9.11204H11.3617V8.04117H12.5301V9.11204ZM12.5301 5.15974H11.3617V3.62596H12.5301V5.15974Z" fill="#181733"/>
<path d="M16.2667 8.2974V12.6679H19.0635V8.2974H16.2667Z" fill="#181733"/>
</g>
</svg>
