<svg width="19" height="11" viewBox="0 0 19 11" xmlns="http://www.w3.org/2000/svg">
    <path d="M18.742 3.307A.705.705 0 0 0 19 2.743V1.375A1.37 1.37 0 0 0 17.643 0H6.107v1.719c0 .38-.303.687-.678.687a.683.683 0 0 1-.679-.687V0H1.357A1.37 1.37 0 0 0 0 1.375v1.368a.705.705 0 0 0 .258.564c.69.511 1.1 1.326 1.1 2.193s-.41 1.682-1.1 2.193A.705.705 0 0 0 0 8.257v1.368A1.37 1.37 0 0 0 1.357 11H4.75V9.281c0-.38.304-.687.679-.687.375 0 .678.307.678.687V11h11.536A1.37 1.37 0 0 0 19 9.625V8.257a.705.705 0 0 0-.258-.564 2.729 2.729 0 0 1-1.1-2.193c0-.867.41-1.682 1.1-2.193zM6.107 6.758c0 .38-.304.688-.678.688a.683.683 0 0 1-.679-.688V4.242c0-.38.304-.688.679-.688.374 0 .678.308.678.688v2.516z" fill-rule="nonzero"/>
</svg>