<svg width="52" height="53" viewBox="0 0 52 53" fill="none" xmlns="http://www.w3.org/2000/svg">
<g clip-path="url(#clip0_19_2)">
<path fill-rule="evenodd" clip-rule="evenodd" d="M49.1531 18.0654C49.0629 18.334 48.9137 18.5772 48.7171 18.7765C47.0717 20.287 46.2236 22.5348 46.4433 24.8243C46.5498 25.9495 46.9115 27.036 47.4993 27.997C48.0871 28.958 48.8848 29.7668 49.8284 30.3585C50.0596 30.519 50.2525 30.7312 50.3923 30.9789C50.532 31.2266 50.6151 31.5032 50.635 31.7877L50.9816 35.4001C51.0768 36.3557 50.7997 37.3072 50.211 38.0469C49.6222 38.7866 48.7697 39.2543 47.8395 39.3479L18.166 42.041L17.7304 37.5016C17.6341 36.4982 16.7769 35.7582 15.8123 35.8458C14.8477 35.9333 14.1436 36.815 14.2398 37.8184L14.6754 42.3578L5.94775 43.1499C5.01584 43.2253 4.089 42.9191 3.36969 42.2981C2.65038 41.6771 2.19708 40.7919 2.1088 39.8357L1.76217 36.2233C1.72764 35.9402 1.75661 35.6534 1.84686 35.3848C1.93711 35.1162 2.08626 34.873 2.2829 34.6737C3.92828 33.1632 4.77639 30.9153 4.55671 28.6259C4.33702 26.3364 3.07589 24.2799 1.17156 23.0916C0.940395 22.9312 0.747546 22.719 0.607754 22.4713C0.467962 22.2236 0.384929 21.9469 0.365005 21.6625L0.0183741 18.0501C-0.0767838 17.0945 0.200271 16.143 0.789016 15.4033C1.37776 14.6636 2.23034 14.1959 3.16052 14.1023L11.8882 13.3102L12.3237 17.8496C12.3451 18.0865 12.4118 18.3173 12.5198 18.5288C12.6279 18.7402 12.7754 18.9282 12.9537 19.0819C13.132 19.2357 13.3378 19.3522 13.5593 19.4248C13.7807 19.4974 14.0135 19.5247 14.2444 19.5052C15.209 19.4176 15.9106 18.5362 15.8143 17.5328L15.3787 12.9934L45.0522 10.3003C45.9842 10.2249 46.911 10.5311 47.6303 11.1521C48.3496 11.773 48.8029 12.6583 48.8912 13.6145L49.2378 17.2269C49.2724 17.51 49.2434 17.7968 49.1531 18.0654ZM15.5214 32.8142C16.4835 32.7269 17.1874 31.8426 17.0911 30.8392L16.4536 24.1952C16.3573 23.1917 15.4973 22.4494 14.5353 22.5367C13.5707 22.6242 12.8667 23.5085 12.963 24.512L13.6006 31.156C13.6216 31.3932 13.688 31.6243 13.796 31.8361C13.9039 32.0479 14.0513 32.2361 14.2298 32.3902C14.4082 32.5442 14.6141 32.6609 14.8357 32.7337C15.0574 32.8064 15.2904 32.8338 15.5214 32.8142ZM35.0669 19.9765V32.7928H37.315V28.5333H39.3304C40.3769 28.3637 41.3459 27.6098 41.4816 26.3281V21.9932C41.3265 21.0131 40.687 19.9765 38.5359 19.9765H35.0669ZM39.2529 26.0077C39.1754 26.5731 38.8459 26.7428 38.4777 26.8182H37.315V21.8047H38.2646C38.9235 21.8047 39.1754 22.0874 39.2529 22.4455V26.0077ZM31.2256 19.9765H33.4737V32.7928H31.2256V19.9765ZM25.3958 19.9765H23.3222V21.5032L24.9888 32.7928H28.4384L30.105 21.5032V19.9765H28.0702L27.3337 25.1219C27.0624 27.0255 26.8299 31.0212 26.8299 31.0212H26.6361C26.6361 31.0212 26.4229 27.0255 26.1516 25.1219L25.3958 19.9765Z" fill="#181733"/>
</g>
<defs>
<clipPath id="clip0_19_2">
<rect width="52" height="53" fill="white"/>
</clipPath>
</defs>
</svg>
