<svg xmlns="http://www.w3.org/2000/svg" viewBox="0 0 14 14"><path d="m8.741.1397-.213-.03a10.685 10.685 0 0 0-3.054 0l-.212.03 1.736 2.004L8.741.1397ZM1.35 2.2057 0 5.2387l2.295.7.374-.8-.795-3.858c-.202.241-.392.54-.524.925Zm10.748-.953-.789 3.836.398.85 2.294-.7-1.34-3.012a2.9094 2.9094 0 0 0-.562-.974h-.001Z"/><path d="m9.3593.2285 1.66.238c.006.002.291.098.637.359l-.874 4.244v.044c0 .005-.005.01-.005.015l.242 8.872h-8.006l.216-8.873a.256.256 0 0 0-.061-.17l-.848-4.113c.35-.271.641-.371.636-.371l1.694-.245 2.153 2.483a.262.262 0 0 0 .396 0l2.16-2.482v-.001Z"/></svg>